<svg width="37" height="46" viewBox="0 0 37 46" fill="none" xmlns="http://www.w3.org/2000/svg">
<g id="PDF_file_icon 1" clip-path="url(#clip0_278_2527)">
<g id="Group">
<path id="Vector" d="M4.69813 0.499671C2.10824 0.499671 0 2.58667 0 5.14854V40.8505C0 43.4123 2.10824 45.4993 4.69813 45.4993H32.2959C34.8858 45.4993 36.994 43.4124 36.994 40.8505V11.4935C36.994 11.4935 37.0679 10.6339 36.6907 9.79741C36.3371 9.0133 35.7607 8.46755 35.7607 8.46755C35.7593 8.46562 35.7579 8.4637 35.7564 8.46178L28.9093 1.81812C28.9056 1.81433 28.9018 1.81058 28.8979 1.80686C28.8979 1.80686 28.3134 1.25621 27.4468 0.88836C26.4264 0.455231 25.3747 0.500953 25.3747 0.500953L25.3904 0.499512L4.69813 0.499671Z" fill="#FF2116"/>
<path id="Vector_2" d="M4.6981 2.02686H25.3904C25.3956 2.02691 25.4008 2.02691 25.406 2.02686C25.406 2.02686 26.2335 2.03479 26.8387 2.2917C27.4212 2.53897 27.8342 2.91327 27.837 2.91578C27.837 2.91579 27.8398 2.91867 27.8398 2.91867L34.6698 9.54682C34.6698 9.54682 35.0813 9.97658 35.2808 10.4189C35.4418 10.7758 35.4517 11.4289 35.4517 11.4289C35.451 11.4397 35.4505 11.4505 35.4502 11.4613V40.8506C35.4502 42.5932 34.0574 43.9724 32.2958 43.9724H4.6981C2.93655 43.9724 1.5437 42.5933 1.5437 40.8506V5.1487C1.5437 3.40607 2.93655 2.02686 4.6981 2.02686Z" fill="#F5F5F5"/>
<path id="Vector_3" d="M9.23712 27.2921C8.17498 26.2415 9.32413 24.7977 12.4428 23.2645L14.4051 22.2999L15.1695 20.6453C15.59 19.7352 16.2175 18.2504 16.5641 17.3456L17.1941 15.7005L16.7599 14.483C16.2261 12.986 16.0357 10.7364 16.3744 9.92747C16.8332 8.83179 18.336 8.94421 18.931 10.1187C19.3956 11.036 19.3481 12.6972 18.7973 14.7922L18.3458 16.5098L18.7435 17.1777C18.9623 17.5451 19.6013 18.4173 20.1635 19.1161L21.2202 20.4164L22.5352 20.2466C26.7124 19.7074 28.1432 20.6238 28.1432 21.9378C28.1432 23.5962 24.8631 23.7331 22.1087 21.8194C21.489 21.3888 21.0634 20.9611 21.0634 20.9611C21.0634 20.9611 19.3378 21.3086 18.4883 21.5351C17.6113 21.7689 17.1738 21.9153 15.8892 22.3442C15.8892 22.3442 15.4385 22.9917 15.1448 23.4624C14.0521 25.2136 12.7763 26.6649 11.8652 27.1931C10.845 27.7845 9.77558 27.8248 9.23712 27.2921ZM10.904 26.7031C11.501 26.3381 12.7094 24.9242 13.546 23.612L13.8846 23.0807L12.3425 23.8478C9.96074 25.0324 8.87113 26.1489 9.43772 26.8242C9.75601 27.2036 10.1368 27.1721 10.904 26.7031ZM26.375 22.4073C26.9589 22.0027 26.8742 21.1873 26.214 20.8586C25.7002 20.6027 25.2861 20.5502 23.9513 20.5697C23.1311 20.625 21.8122 20.7885 21.5887 20.8382C21.5887 20.8382 22.3132 21.3336 22.6349 21.5157C23.0631 21.7576 24.1038 22.2067 24.8635 22.4368C25.613 22.6637 26.0465 22.6398 26.375 22.4073ZM20.1543 19.8497C19.8009 19.4822 19.1999 18.7152 18.8189 18.1452C18.3205 17.4986 18.0705 17.0424 18.0705 17.0424C18.0705 17.0424 17.7063 18.2015 17.4074 18.899L16.475 21.1787L16.2047 21.6959C16.2047 21.6959 17.6418 21.2297 18.3731 21.0408C19.1475 20.8407 20.7193 20.5349 20.7193 20.5349L20.1543 19.8497ZM18.1496 11.8971C18.2397 11.1487 18.278 10.4015 18.035 10.0247C17.3608 9.29566 16.5471 9.90363 16.6849 11.6369C16.7313 12.22 16.8777 13.2167 17.0735 13.8311L17.4294 14.9481L17.68 14.1068C17.8177 13.6441 18.0291 12.6497 18.1496 11.8971Z" fill="#FF2116"/>
<path id="Vector_4" d="M11.0435 32.1577H12.7679C13.3189 32.1577 13.7661 32.2099 14.1096 32.3142C14.4532 32.4151 14.7423 32.6422 14.977 32.9955C15.2116 33.3454 15.329 33.7676 15.329 34.2622C15.329 34.7164 15.2337 35.1067 15.0433 35.4331C14.8528 35.7594 14.596 35.995 14.2729 36.1396C13.9532 36.2843 13.46 36.3566 12.7934 36.3566H12.1965V39.0466H11.0435V32.1577ZM12.1965 33.0409V35.4432H12.7679C13.2781 35.4432 13.6301 35.349 13.8239 35.1606C14.0212 34.9721 14.1198 34.666 14.1198 34.242C14.1198 33.9258 14.0552 33.6701 13.926 33.4749C13.7967 33.2764 13.6539 33.1553 13.4974 33.1116C13.3444 33.0644 13.1012 33.0409 12.7679 33.0409L12.1965 33.0409ZM16.2116 32.1577H17.7778C18.5363 32.1577 19.1417 32.2906 19.5941 32.5564C20.0499 32.8222 20.3934 33.2175 20.6247 33.7424C20.8593 34.2673 20.9767 34.8493 20.9767 35.4886C20.9767 36.1615 20.8712 36.7621 20.6604 37.2903C20.4529 37.8152 20.1332 38.2391 19.7012 38.5621C19.2727 38.8851 18.6605 39.0466 17.8646 39.0466H16.2116V32.1577ZM17.3646 33.0712V38.1331H17.8442C18.5142 38.1331 19.0006 37.9043 19.3033 37.4467C19.606 36.9858 19.7574 36.3718 19.7574 35.6047C19.7574 33.9157 19.1196 33.0712 17.8442 33.0712H17.3646ZM22.0838 32.1577H25.951V33.0712H23.2368V35.1303H25.4102V36.0437H23.2368V39.0466H22.0838V32.1577Z" fill="#2C2C2C"/>
</g>
</g>
<defs>
<clipPath id="clip0_278_2527">
<rect width="37" height="45" fill="white" transform="translate(0 0.5)"/>
</clipPath>
</defs>
</svg>
