<svg width="56" height="18" viewBox="0 0 56 18" fill="none" xmlns="http://www.w3.org/2000/svg">
<g id="Visa_Inc._logo 1" clip-path="url(#clip0_278_2518)">
<g id="g4158">
<path id="polygon9" d="M24.2666 17.7404H19.7302L22.5676 0.315918H27.1038L24.2666 17.7404Z" fill="#00579F"/>
<path id="path11" d="M40.7115 0.741829C39.8167 0.38927 38.3975 0 36.6427 0C32.1628 0 29.0082 2.37257 28.9888 5.76463C28.9516 8.26729 31.2475 9.65732 32.9646 10.4918C34.7197 11.3445 35.3163 11.901 35.3163 12.6611C35.2984 13.8284 33.8981 14.3665 32.592 14.3665C30.7809 14.3665 29.8104 14.0891 28.3357 13.4396L27.7383 13.1612L27.1035 17.0727C28.1675 17.5541 30.1277 17.9813 32.1628 18C36.9227 18 40.0216 15.6641 40.0583 12.0494C40.0764 10.0658 38.8641 8.54594 36.2505 7.30397C34.6638 6.50671 33.6922 5.96912 33.6922 5.15338C33.7108 4.4118 34.514 3.65223 36.305 3.65223C37.7798 3.61503 38.8634 3.9671 39.6842 4.31941L40.0945 4.50444L40.7115 0.741829Z" fill="#00579F"/>
<path id="path13" d="M46.7407 11.5675C47.1143 10.5665 48.5518 6.6923 48.5518 6.6923C48.533 6.7295 48.9247 5.6728 49.1487 5.0241L49.4657 6.5255C49.4657 6.5255 50.3248 10.6963 50.5113 11.5675C49.8024 11.5675 47.6367 11.5675 46.7407 11.5675ZM52.3403 0.315918H48.8314C47.7494 0.315918 46.9273 0.630783 46.4604 1.76163L39.7222 17.7402H44.4821C44.4821 17.7402 45.2657 15.5896 45.4341 15.1264C45.9563 15.1264 50.5867 15.1264 51.2585 15.1264C51.3887 15.7381 51.7998 17.7402 51.7998 17.7402H56L52.3403 0.315918Z" fill="#00579F"/>
<path id="path15" d="M15.9412 0.315918L11.4985 12.1977L11.0131 9.78797C10.1917 7.00741 7.61581 3.98638 4.74121 2.48425L8.81049 17.7219H13.6076L20.738 0.315918H15.9412Z" fill="#00579F"/>
<path id="path17" d="M7.37328 0.315918H0.0746677L0 0.667985C5.69337 2.11395 9.46398 5.59938 11.0132 9.78871L9.42653 1.7806C9.16531 0.667738 8.36257 0.352628 7.37328 0.315918Z" fill="#FAA61A"/>
</g>
</g>
<defs>
<clipPath id="clip0_278_2518">
<rect width="56" height="18" fill="white"/>
</clipPath>
</defs>
</svg>
